<?xml version="1.0" encoding="UTF-8"?>
<svg xmlns="http://www.w3.org/2000/svg" width="416" height="61" viewBox="0 0 416 61" fill="none">
  <path d="M289.251 57.1833V3.81686H295.608V27.4471H305.818V3.81686H312.176V57.1833H305.818V32.5038H295.608V57.1833H289.251Z" fill="#201E1D"></path>
  <path d="M322.993 32.5038V36.0659H331.18V32.4402C331.18 24.9663 330.345 22.4859 327.102 22.4859C323.827 22.4859 322.993 25.1889 322.993 32.5038ZM337.441 40.0096H322.993V42.8718C322.993 50.091 323.57 53.2715 327.166 53.2715C330.634 53.2715 331.468 50.6956 331.437 45.4481L337.087 45.766C337.504 53.8439 334.39 57.8193 327.263 57.8193C319.236 57.8193 316.699 52.8581 316.699 41.6315V33.7443C316.699 23.1536 319.461 17.9697 327.358 17.9697C335.385 17.9697 337.441 22.5176 337.441 33.935V40.0096Z" fill="#201E1D"></path>
  <path d="M355.419 38.0378C349.415 39.7871 346.814 43.1901 346.814 47.8649C346.814 51.1727 347.906 53.2715 350.635 53.2715C352.722 53.2715 354.263 51.904 355.419 50.1232V38.0378ZM361.584 30.6276V57.1834H356.8L356.029 52.8899C354.521 56.0068 352.015 57.8831 348.452 57.8831C343.668 57.8831 340.425 54.6712 340.425 48.8508C340.425 41.5679 345.241 36.7975 355.419 34.2532V30.7865C355.419 24.9348 354.681 22.4859 351.502 22.4859C348.099 22.4859 346.942 24.8712 347.039 30.8183L341.292 30.3731C340.618 22.0726 343.925 17.938 351.759 17.938C359.047 17.938 361.584 22.1041 361.584 30.6276Z" fill="#201E1D"></path>
  <path d="M366.654 1.84522H372.658V57.1833H366.654V1.84522Z" fill="#201E1D"></path>
  <path d="M379.335 48.8831V23.5038H375.675V18.5104H379.56L380.459 7.53817H385.275V18.5104H391.343V23.5038H385.468V48.0876C385.468 51.8724 385.949 52.6356 387.747 52.6356C388.871 52.6356 389.995 52.4129 391.151 52.0632L392.082 56.134C390.251 57.1199 387.426 57.6287 385.468 57.6287C380.684 57.6287 379.335 55.4663 379.335 48.8831Z" fill="#201E1D"></path>
  <path d="M394.713 57.1833V1.84522H400.845V13.7714C400.845 16.2205 400.782 20.4503 400.428 23.0265H400.492C402.29 19.7825 405.019 17.9379 408.679 17.9379C413.721 17.9379 416 21.3727 416 28.083V57.1516H409.675V28.7827C409.675 24.5529 408.744 22.5811 406.143 22.5811C404.056 22.5811 402.323 23.7896 401.006 25.8251V57.1833H394.713Z" fill="#201E1D"></path>
  <path d="M35.1895 43.5715L57.9858 30.4685L35.1895 17.4293V43.5715ZM9.63228 59.1555C5.84353 58.1376 2.88962 55.1483 1.79805 51.4589C0 44.6531 0 30.4685 0 30.4685C0 30.4685 0 16.2842 1.79805 9.54198C2.88962 5.7895 5.84353 2.86295 9.63228 1.84533C16.439 0.00088501 43.9228 0.00088501 43.9228 0.00088501C43.9228 0.00088501 71.4711 0.00088501 78.2777 1.84533C82.1307 2.86295 85.0201 5.7895 86.0479 9.54198C87.91 16.2842 87.91 30.4685 87.91 30.4685C87.91 30.4685 87.91 44.6531 86.0479 51.4589C85.0201 55.1483 82.1307 58.1376 78.2777 59.1555C71.4711 61 43.9228 61 43.9228 61C43.9228 61 16.439 61 9.63228 59.1555Z" fill="#ED1D24"></path>
  <path d="M35.1895 43.5715L57.9858 30.4686L35.1895 17.4293V43.5715Z" fill="white"></path>
  <path d="M106.619 57.2471V40.5503L96.4414 3.81692H105.271L108.931 20.1005C109.766 23.8535 110.633 29.2282 111.018 31.1683H111.082C111.468 29.2919 112.302 23.9172 113.169 20.1641L116.958 3.81692H125.788L115.481 40.5503V57.2471H106.619Z" fill="#201E1D"></path>
  <path d="M138.34 33.1401C138.34 25.6344 137.634 23.4717 135.13 23.4717C132.561 23.4717 131.791 25.6344 131.791 33.1401V42.1087C131.791 49.8688 132.561 51.8405 135.001 51.8405C137.634 51.8405 138.34 49.8688 138.34 42.1087V33.1401ZM147.331 36.1297V39.2465C147.331 53.1124 144.248 57.8193 135.066 57.8193C125.626 57.8193 122.801 52.9852 122.801 39.2465V36.1297C122.801 21.9454 126.461 17.4292 135.258 17.4292C144.056 17.4292 147.331 22.136 147.331 36.1297Z" fill="#201E1D"></path>
  <path d="M151.052 47.5152V18.1924H159.914V46.5929C159.914 50.0278 160.684 51.5544 162.514 51.5544C163.895 51.5544 165.243 50.9502 166.206 48.406V18.1924H175.068V57.1835H167.555L167.042 51.936H167.009C165.918 55.6571 163.767 57.9468 159.304 57.9468C153.395 57.9468 151.052 54.1942 151.052 47.5152Z" fill="#201E1D"></path>
  <path d="M181.294 57.1833V11.3227H172.529V3.81686H198.922V11.3227H190.156V57.1833H181.294Z" fill="#201E1D"></path>
  <path d="M196.48 47.5152V18.1924H205.342V46.5929C205.342 50.0278 206.113 51.5544 207.943 51.5544C209.324 51.5544 210.672 50.9502 211.635 48.406V18.1924H220.496V57.1835H212.984L212.47 51.936H212.438C211.346 55.6571 209.195 57.9468 204.732 57.9468C198.824 57.9468 196.48 54.1942 196.48 47.5152Z" fill="#201E1D"></path>
  <path d="M240.946 34.6667C240.946 25.6344 240.176 23.6627 237.703 23.6627C236.033 23.6627 234.428 25.1256 233.786 27.9244V49.4554C234.556 50.9501 235.905 51.586 237.318 51.586C239.982 51.586 240.946 48.7876 240.946 40.3277V34.6667ZM250 34.6667V39.8824C250 52.4769 247.303 57.7559 241.331 57.7559C237.703 57.7559 234.974 56.1658 233.561 53.4945H233.529L232.951 57.1834H225.245V1.84527H233.786V13.04C233.786 15.9661 233.85 18.8923 233.593 22.3905H233.689C235.166 19.4646 237.703 17.4292 241.684 17.4292C247.4 17.4292 250 21.1182 250 34.6667Z" fill="#201E1D"></path>
  <path d="M262.23 32.6312V35.589H268.073V32.6312C268.073 25.4436 267.785 23.4082 265.119 23.4082C262.455 23.4082 262.23 25.5072 262.23 32.6312ZM276.903 40.4868H262.23V42.6176C262.23 49.4872 262.39 51.8405 265.248 51.8405C268.073 51.8405 268.716 49.678 268.779 45.2255L276.582 45.5752C277.16 54.067 272.729 57.8193 265.216 57.8193C256.097 57.8193 253.4 51.904 253.4 41.1547V34.3485C253.4 23.0266 256.419 17.4927 265.473 17.4927C274.591 17.4927 276.903 22.1996 276.903 33.967V40.4868Z" fill="#201E1D"></path>
</svg>
