<?xml version="1.0" encoding="UTF-8"?>
<!-- Generator: Adobe Illustrator 16.0.0, SVG Export Plug-In . SVG Version: 6.00 Build 0)  -->
<svg xmlns="http://www.w3.org/2000/svg" xmlns:xlink="http://www.w3.org/1999/xlink" version="1.1" id="Ebene_1" x="0px" y="0px" width="431px" height="140px" viewBox="0 0 431 140" xml:space="preserve">
<g>
	<rect x="205.705" y="17.812" fill="#0072B5" width="1.053" height="104.375"></rect>
</g>
<g>
	<path fill="#005898" d="M0,70.001c0-28.822,23.363-52.185,52.186-52.185c28.823,0,52.188,23.363,52.188,52.185   c0,28.821-23.364,52.187-52.188,52.187C23.363,122.188,0,98.822,0,70.001"></path>
	<polygon fill="#0072B5" points="11.383,37.464 1.304,81.62 29.541,117.026 74.833,117.026 103.072,81.62 92.991,37.464    52.188,17.814  "></polygon>
	<polygon fill="#009DE2" points="29.545,117.028 6.899,77.805 29.545,38.583 74.835,38.583 97.481,77.805 74.835,117.028  "></polygon>
	<polygon fill="#90C261" points="29.548,117.028 15.553,73.954 52.192,47.333 88.831,73.954 74.836,117.028  "></polygon>
	<rect x="29.541" y="71.735" fill="#D2D700" width="45.293" height="45.293"></rect>
	<polygon fill="#FFEC00" points="52.576,77.919 74.834,117.026 29.541,117.026  "></polygon>
</g>
<g>
	<path fill="#008CD0" d="M374.668,90.144c2.096,1.065,4.035,2.539,4.846,5.337c0.352-4.63-2.229-6.638-4.791-7.993   C374.725,87.493,374.668,90.144,374.668,90.144"></path>
	<path fill="#008CD0" d="M388.615,43.153c0-4.21-3.037-8.877-10.471-10.524c-0.551-0.122-1.393-0.207-2.27-0.262   c-0.018,0.632-0.049,2.086-0.049,2.086c-0.012,0.456-0.049,2.14-0.057,2.5c0.686,0.062,1.193,0.146,1.43,0.204   c4.32,1.04,5.865,3.531,5.865,5.997c0,3.989-3.395,5.497-7.568,6.633c-0.453,0.123-0.914,0.243-1.383,0.362   c-1.264,0.317-2.572,0.625-3.857,0.974c-0.461,0.124-0.92,0.255-1.371,0.392c-4.627,1.418-8.604,3.661-8.604,9.409   c0,5.692,4.535,7.82,8.967,9.191c-0.031-1.636-0.062-3.284-0.094-4.935c-1.955-0.92-3.338-2.133-3.338-4.177   c0-1.996,1.256-3.2,3.178-4.074c0.426-0.193,0.883-0.369,1.365-0.534c1.105-0.379,2.344-0.698,3.645-1.016   c0.453-0.11,0.916-0.223,1.385-0.335C381.625,53.522,388.615,51.562,388.615,43.153"></path>
	<path fill="#008CD0" d="M366.203,83.307c0.012,2.296,1.689,3.551,3.375,4.497c-0.004-0.385-0.072-3.945-0.072-4.005   c0.035-0.713,0.721-1.137,1.273-1.399c0.811-0.384,1.631-0.663,2.68-1.028c0.498-0.174,0.926-0.345,1.406-0.488   c3.383-1.023,7.295-2.333,7.295-6.473c0-4.145-3.354-5.842-7.023-7.116c-0.025,1.323-0.066,3.247-0.09,4.579   c1.549,0.612,2.574,1.357,2.574,2.537c0,1.482-1.574,2.336-2.691,2.769c-0.463,0.182-1.174,0.419-1.367,0.479   c-0.902,0.283-1.869,0.604-2.771,0.941c-0.477,0.181-0.939,0.375-1.371,0.598C367.834,80.015,366.191,81.209,366.203,83.307"></path>
	<path fill="#008CD0" d="M359.93,40.736l-1.045,0.229l1.248-2.059l1.471,0.047L359.93,40.736z M368.494,33.022   c-2.25,0.648-3.578,1.501-4.076,1.671c-1.461,0.487-3.52,0.57-5.643,2.895c-0.379,0.415-1.297,1.579-1.953,2.532   c-0.639,0.93-0.668,2.422-1.139,3.221c-0.684,1.163-0.518,1.828-0.518,1.828l0.02,0.031c-0.025,0.145-0.16,0.762-0.781,1.458   c-0.713,0.792-1.645,1.231-2.756,1.052c0.965,0.487,2.303-0.193,2.303-0.193s-0.254,0.735-0.51,1.934   c1.086-2.472,2.078-3.375,2.393-3.626c0.467,0.106,1.434,0.062,3.229-0.972c2.031-1.171,5.084-3.084,5.945-4.292   c0.932-1.305,2.211-2.167,3.596-2.725C368.564,36.013,368.525,34.389,368.494,33.022"></path>
	<path fill="#008CD0" d="M372.684,83.02c-0.191,0.068-0.703,0.287-1.023,0.401c-0.34,0.122-0.771,0.295-0.771,0.416   c0.002,0.032,0.324,17.836,0.324,18.225c0,3.668,1.861,3.688,1.861,0c0-0.261,0.373-19.293,0.373-19.293   S372.998,82.905,372.684,83.02"></path>
	<path fill="#008CD0" d="M370.764,77.145c0.582-0.201,1.15-0.379,1.691-0.546c0.404-0.125,0.777-0.242,1.123-0.355   c0.021-1.12,0.338-16.612,0.396-19.43c-1.387,0.346-2.59,0.672-3.584,1.036C370.434,59.964,370.73,75.455,370.764,77.145"></path>
	<path fill="#008CD0" d="M372.311,17.812c-5.217,0-3,7.778-2.588,10.314c0.018,0.118,0.424,17.569,0.504,21.574   c0.793-0.21,1.578-0.405,2.342-0.595c0.545-0.133,1.07-0.264,1.574-0.394c0.08-3.855,0.465-20.509,0.477-20.62   C374.934,25.385,377.664,17.812,372.311,17.812"></path>
	<path fill="#008CD0" d="M367.193,61.001c0,1.132,0.686,1.924,1.93,2.611c0,0-0.004-0.193-0.012-0.502l-0.781-0.787l0.412-0.755   l0.338-0.095c-0.023-1.317-0.053-2.786-0.057-2.996l-0.061,0.008C367.82,59.119,367.193,59.896,367.193,61.001 M339.85,86.269   l0.082-0.302l-0.6-1.315l-0.715-0.267L339.85,86.269z M388.209,56.109l0.027,0.522l1.158-0.35l0.355-0.712l-0.801-1.055   l0.424-0.641l1.086,0.774l0.199-0.16l-0.217-0.154l-0.244-0.466l0.441-0.257l-0.436-0.576l-1.012,0.519l-0.355,0.613l-0.203,0.561   l0.449,0.755l-0.164,0.355L388.209,56.109z M392.262,37.141l-0.406-0.659l-0.871-0.438l-0.684,0.522l0.871,0.465l0.98,0.711   L392.262,37.141z M343.85,39.589l4.725,4.754c-5.51,5.807-8.926,13.634-9.033,22.25h-6.688   C332.961,56.125,337.129,46.616,343.85,39.589 M340.963,76.614l-0.393-0.072l-0.373-0.419l-1.875-0.167l0.582,0.795l-1.74-0.331   l0.457-0.421l-0.424-0.42l-1.256,0.549l-0.447,0.835l0.17,1.915l1.439,3.476l0.699,1.087l0.398,0.149l-1.098-2.083l-0.238-1.061   l0.248-0.261l-0.148-0.585l0.652,0.089l1.008,1.534l0.254,0.102l-0.027-1.12l0.408,0.24l0.09,0.609l1.061,0.284l0.441-0.321   l0.152,0.107l-0.018,0.818l0.469,0.576l0.566,0.129l1.242,2.111l0.748,0.209l0.234-0.986c1.305,2.171,2.857,4.178,4.609,5.982   l-4.725,4.749c-6.775-6.941-11.033-16.377-11.271-26.792h6.689C339.631,70.937,340.121,73.853,340.963,76.614 M347.566,67.922   c0.025,0.656,0.078,1.3,0.154,1.942l-0.82,0.188l-0.168,0.836l-1.707,2.178l0.043,2.997l-1.75,0.586l-0.957,0.011   c-0.885-2.769-1.404-5.698-1.49-8.737H347.566z M349.064,86.841l1.502,0.881l0.309,0.211l-1.086,1.091   c-0.51-0.524-0.996-1.074-1.469-1.632L349.064,86.841z M355.174,50.977l4.727,4.753c-0.986,1.089-1.832,2.312-2.51,3.634   l-0.328-0.023l-0.666,0.21l-0.23-0.021l-0.709,0.662l0.898-0.144l0.803-0.205c-0.047,0.104-0.094,0.207-0.141,0.31l-0.705,0.438   h-0.33l-1.045,0.796l-0.998-0.083l-1.457,2.719l0.289,0.548l-0.791,0.877l-0.117,1.146h-2.986   C348.98,60.563,351.355,55.082,355.174,50.977 M360.02,70.596l0.334-0.169l0.879,0.663l-0.379,0.313l0.98,0.656l-0.062-0.706   l0.523-0.871l0.549,0.583l0.562,0.809l-1.014,0.227l0.457,0.922l0.709-0.375l-0.09-0.294l0.525-0.361l0.311-1.462   c0.385,0.869,0.904,1.667,1.535,2.359l-4.727,4.751c-2.258-2.381-3.762-5.485-4.141-8.924l0.965,1.037l0.912-0.017L360.02,70.596z    M353.23,65.573l0.123-1.341l0.795-0.459l1.416,0.25l0.215,0.261c-0.127,0.753-0.199,1.525-0.217,2.311h-1.604L353.23,65.573z    M351.031,70.186l-0.633,0.996h-1.084l-0.084-0.063c-0.184-1.045-0.303-2.111-0.342-3.196h2.016l-0.482,1.622L351.031,70.186z    M355.455,83.331c-0.484-0.503-0.947-1.028-1.389-1.572l0.207-1.7l-0.711-1.634l-0.164-2.554l-0.793-1.549l0.166-0.964l-0.955-1.84   l-0.834-0.419l0.338-0.982l-0.35-0.775l0.346-0.883h0.914l0.322-0.538h1.562l0.244,0.462l-0.295,1.598l-0.188,0.274l0.584,1.287   l-0.385,0.213l-0.268-0.342l-0.113,0.129l0.266,0.759l0.457,0.892l0.217-0.022l0.125-0.797l-0.223-0.291l-0.023-0.54l-0.066-1.117   l0.326-1.974l-0.318-0.531h1.123c0.221,4.123,1.936,7.852,4.602,10.657L355.455,83.331z M395.709,89.85   c5.502-5.714,8.965-13.422,9.195-21.928h6.693c-0.238,10.358-4.449,19.745-11.16,26.68L395.709,89.85z M393.867,87.998l0.52-0.587   l-0.49-2.601l-0.346-0.136l0.213-0.44l-1.119-0.354l-0.217,0.93l-0.109,1.177l-0.234,0.218l-2.037-2.05   c4.051-4.255,6.615-9.95,6.842-16.233h6.695c-0.23,8.139-3.545,15.516-8.807,20.987L393.867,87.998z M387.973,94.278l0.631-1.356   l-0.246-0.604l0.926-0.819v-0.491l-0.789-0.494l0.652-1.312l0.98-1.287l-0.98-1.065h-0.736l-0.459-0.741   c0.395-0.328,0.783-0.663,1.156-1.018l4.732,4.759C392.068,91.543,390.1,93.033,387.973,94.278 M387.068,81.16l-0.643-0.642   l0.492-0.643l0.619-1.265l-0.242-0.357l0.414-0.935l-0.049-0.844l-0.248-0.873l-0.584-0.21l-0.215,0.497l-0.348-0.097   c0.504-0.805,1.033-1.565,1.396-2.457l0.602-0.261l0.34-0.455l0.164,0.191l0.406-0.492l-0.326-0.412l0.299-0.083l0.545,0.221   l1.035,0.026l0.625-0.328l1.633-0.436l-0.311-0.545l-0.104-0.662l0.875,0.386l0.33-0.19l-0.166-0.686l-1.076,0.404l-1.182-0.242   l-0.902-1.851h5.119c-0.227,5.92-2.641,11.282-6.457,15.294l-0.701-0.706l0.301-0.947l-0.545-2.076L387.068,81.16z M384.658,55.848   l4.732-4.757c1.107,1.206,2.088,2.534,2.926,3.953l-0.59,0.162l0.031,1.062l1.777,1.127c0.434,0.968,0.803,1.972,1.105,3.004   l-0.311,0.456l-0.639,0.411l-0.164,0.987l-0.438,0.243l-0.359,0.437l-0.375-0.135l-0.648-0.027l0.377-0.52l0.271-1.341l0.436-0.272   l-1.277-1.233l-0.953,0.329l-0.217,0.904l-0.6,0.654l-0.625-0.52l-0.221-0.55l0.355-0.224l0.199,0.362l0.291-0.107l-0.127-0.604   l-0.416-0.025l-0.027,0.245l-0.273,0.056l-1.469-1.721l-0.496-0.387l0.189-0.207l0.447-0.157l-0.414-0.161   c0,0-0.52,0.117-0.578,0.117l0.293,0.373l-0.744-0.012C385.686,57.093,385.193,56.45,384.658,55.848 M385.393,81.791l-1.443-0.413   l-0.438,0.162l-0.816-0.631l-0.768-0.278c0.381-0.274,0.75-0.562,1.104-0.867l1.191,0.844l0.906,0.482l0.451,0.454L385.393,81.791z    M382.832,59.46l0.6-0.139l-0.031-0.143l-0.596-0.403l0.205-1.267l0.713-0.72c0.451,0.512,0.867,1.053,1.246,1.619l-0.252,0.783   l-0.652-0.467l-0.496,0.137l0.244,0.461h0.244l-0.271,0.683l-0.191-0.271L382.832,59.46z M390.861,64.084l1.197-0.658l1.225-0.193   l0.271-0.598l0.68-0.413l0.264-0.573l0.213-0.995c0.098,0.349,0.188,0.704,0.27,1.061l-0.648,1.946l-0.027,0.657l0.945-1.265   c0.195,1.154,0.311,2.335,0.33,3.54h-5.861l-0.137-0.512l0.68-0.547l0.135-0.329l0.301-0.218l0.791-0.082l0.08-0.356   L390.861,64.084z M392.201,48.322l1.607,0.073l0.381,0.464l-0.191,0.685l2.23,1.395l0.439-0.054l2.854,3.282l1.166-0.41   c1.811,3.913,2.848,8.258,2.906,12.837h-6.691c-0.029-1.755-0.246-3.466-0.621-5.116l0.307-0.415l0.414-2.108l-0.312-2.264   l-0.807-2.602l-1.867-2.744l0.453,0.241l0.227-0.23l-1.496-1.021l-0.1,0.335l1.498,2.152l0.85,1.766l0.604,1.745l0.193,1.176   l0.311,1.978l-0.562,0.042c0,0-0.646-1.211-0.846-1.714l0.301-0.447l-0.572-0.822v-0.819l-0.406-0.52l-0.508,0.066   c-0.182-0.34-0.371-0.675-0.57-1.005l0.359,0.186l0.098-0.099l-0.191-0.423l0.434-0.245l-0.193-0.249l-0.648,0.249l0.236-1.022   l-0.383-0.218l-0.346,0.813c-0.729-1.099-1.543-2.141-2.43-3.106L392.201,48.322z M400.717,39.703   c6.654,7.016,10.777,16.478,10.885,26.89h-6.686c-0.064-5.156-1.316-10.03-3.492-14.355l0.059-0.123l0.463,0.245l0.109-0.354   l-1.199-2.107l-1.414-1.971l-1.662-1.394c-0.568-0.715-1.166-1.409-1.791-2.076L400.717,39.703z M381.014,79.658l-0.006-0.035   l0.014,0.029C381.02,79.652,381.018,79.655,381.014,79.658 M372.227,107.927c22.441,0,40.699-18.359,40.699-40.919   c0-21.163-16.064-38.624-36.574-40.71c-0.016,0.082-0.031,0.162-0.051,0.238c-0.082,0.397-0.154,0.756-0.211,1.073   c9.184,0.905,17.455,4.995,23.699,11.153l-4.492,4.516l0.17-0.793l-0.586-0.263l-0.809-0.048l0.17-0.52l-0.543-1.851l-1.117-1.23   l-3.512-1.862l-0.297,0.326l-0.639,0.184c1.207,1.784,1.857,3.845,1.857,5.934c0,0.272-0.008,0.536-0.021,0.8l1.74,2.198   l-0.814,0.192l0.537,0.814L389.9,48.7l-0.615-1.18c-0.295,0.825-0.686,1.59-1.162,2.303c0.113,0.108,0.232,0.211,0.344,0.321   l-4.729,4.75c-0.287-0.274-0.586-0.537-0.891-0.79c-0.451,0.209-0.916,0.405-1.385,0.589c0.137,0.103,0.27,0.206,0.402,0.312   l-0.24,0.245l-0.553,0.313l-0.207,0.555l-0.344-0.347l-0.998,0.333l0.273,0.441l0.689-0.185l0.447,0.034l0.035-0.242l0.346-0.175   l0.105-0.207l0.619-0.173l0.482-0.023c0.098,0.084,0.193,0.17,0.285,0.257l-1.877,1.886l-0.141-0.202l-1.959,0.328l-0.436,0.44   l-0.432,0.049l1.221-1.172l-0.438-0.221l-1.135,1.53l0.334-0.036l-0.021,0.562l0.418,0.161l0.08,0.602l-0.682-0.138l-0.713,0.135   l-1.719-0.89c0,0-0.098,4.643-0.143,6.978c4.061,1.375,8.369,3.355,8.369,8.564c0,2.287-0.984,4.137-2.92,5.502l0.016,0.003   c-0.029,0.021-0.059,0.041-0.088,0.061l-0.01-0.007c-0.043,0.031-0.084,0.062-0.131,0.092c-1.643,1.092-3.752,1.671-5.584,2.248   c-0.012,0.006-0.055,3.647-0.055,3.647c2.91,1.457,6.445,3.575,6.121,9.631c-0.041,1.49-0.619,1.901-1.115,2.037v0.003   c-1.701,0.421-3.461,0.703-5.262,0.834c-0.01,0.47-0.018,0.92-0.025,1.334c7.842-0.54,14.932-3.868,20.291-9.008l4.729,4.752   c-7.082,6.843-16.697,11.061-27.275,11.061c-10.516,0-20.088-4.169-27.16-10.95l4.73-4.754c5.309,5.037,12.287,8.316,20.002,8.889   c-0.006-0.411-0.016-0.857-0.023-1.333c-7.342-0.575-13.98-3.701-19.045-8.495l1.266-1.27l1.73,0.198l0.92-0.996l2.416,0.084   l0.357-0.844l-0.086-0.354c3.5,2.671,7.723,4.426,12.32,4.907c-0.008-0.518-0.018-0.969-0.025-1.338   c-5.076-0.568-9.666-2.775-13.232-6.083l4.732-4.759c1.146,1.031,2.438,1.904,3.836,2.587c0.104-0.453,0.262-0.869,0.475-1.248   c-1.225-0.61-2.363-1.377-3.377-2.276l4.742-4.767c0.752,0.605,1.607,1.087,2.533,1.419c-0.01-0.477-0.02-0.97-0.027-1.436   c-0.561-0.245-1.088-0.559-1.568-0.931l1.34-1.344c-0.469-0.143-0.943-0.293-1.416-0.455l-0.893,0.897   c-0.453-0.504-0.834-1.074-1.135-1.691c-0.816-0.361-1.607-0.773-2.342-1.259c-2.914-1.926-4.391-4.643-4.391-8.077   c0-2.621,0.729-4.607,1.916-6.147l-4.717-4.743c3.398-3.263,7.766-5.51,12.625-6.25c-0.01-0.459-0.02-0.908-0.029-1.334   c-5.209,0.753-9.895,3.15-13.529,6.648l-0.797-0.799c-0.182,0.316-0.395,0.725-0.637,1.239l0.502,0.504   c-4.059,4.346-6.58,10.159-6.686,16.554h-6.691c0.105-8.25,3.375-15.744,8.645-21.314l2.127,2.14   c0.098,0.002,0.197-0.001,0.301-0.009c0.375-0.027,0.797-0.145,1.205-0.354l-2.699-2.717c1.428-1.387,2.984-2.64,4.652-3.738   c0.135-0.451,0.262-0.846,0.332-0.988c0.08-0.167,0.506-0.73,1.021-1.379c-2.535,1.412-4.871,3.152-6.941,5.167l-4.725-4.75   c6.199-6.067,14.373-10.104,23.445-11.028c-0.029-0.163-0.053-0.287-0.053-0.287c-0.064-0.317-0.131-0.661-0.195-1.022   c-20.453,2.146-36.449,19.576-36.449,40.694C331.529,89.567,349.787,107.927,372.227,107.927 M353.131,48.924   c0.047-0.274,0.098-0.496,0.172-0.738c-0.252,0.064-0.537,0.092-0.818,0.085L353.131,48.924z M376.246,74.41   c0-0.343-0.447-0.675-1.115-0.987l-0.119-0.002c-0.008,0.276-0.031,1.634-0.043,2.297C375.789,75.347,376.246,74.948,376.246,74.41    M380.088,31.162l0.4-0.36l-0.756-0.323l-2-0.039l-0.52,0.362l-1.176-0.098l-0.016,0.287c0.752,0.05,1.48,0.12,2.059,0.219   l0.971-0.088L380.088,31.162z M381.6,44.062c-1.877-0.781-3.867-1.337-5.945-1.63c-0.008,0.441-0.018,0.892-0.029,1.337   c1.916,0.283,3.754,0.796,5.488,1.518C381.344,44.921,381.508,44.516,381.6,44.062 M406.934,38.144   c3.16,10.422,10.625,8.106,15.619,19.042c-0.525-3.675,3.635-15.398-6.131-22.64c3.266,4.02,2.299,11.466,4.23,16.337   C416.867,42.689,408.717,41.34,406.934,38.144 M335.316,36.921c2.254-2.698,3.02-6.409,6.557-9.087   c-7.258,1.555-13.398,8.085-15.051,16.079C329.133,41.208,333.066,39.62,335.316,36.921 M416.021,60.413   c-0.494,10.591,5.387,12.459,5.018,21.721c2.5-6.461,12.232-8.294,8.59-23.715c0.068,5.913-5.17,9.353-7.359,18.601   C422.699,66.607,418.641,65.455,416.021,60.413 M431,72.12c-1.939,5.833-8.646,8.997-12.979,17.504   c2.453-10.039-1.186-12.716-1.566-18.206c-3.645,9.751,1.154,13.251-1.545,23.408C418.125,90.427,430.865,88.066,431,72.12    M423.414,63.936c-1.113-5.254-3.756-8.857-7.066-11.597c-2.426-2.01-3.066-2.555-3.975-3.833   c3.465,11.711,8.797,11.78,11.107,20.63c0.336-4.596,9.791-12.204,0.846-24.903C426.637,50.156,423.16,58.281,423.414,63.936    M332,48.506c-0.912,1.278-1.553,1.823-3.979,3.833c-3.307,2.739-5.951,6.343-7.066,11.597c0.254-5.655-3.221-13.78-0.91-19.703   c-8.949,12.7,0.51,20.307,0.846,24.903C323.203,60.286,328.533,60.217,332,48.506 M328.346,60.413   c-2.615,5.042-6.676,6.194-6.244,16.607c-2.191-9.248-7.428-12.688-7.359-18.601c-3.646,15.421,6.086,17.254,8.586,23.715   C322.963,72.872,328.842,71.004,328.346,60.413 M394.217,112.573c-4.121-1.104-8.365-1.655-11.521-1.735   c-3.941-0.097-7.461,0.651-10.51,1.793c-3.049-1.142-6.568-1.89-10.508-1.793c-3.162,0.08-7.402,0.631-11.523,1.735   c-6.336,1.697-11.818,3.012-16.594,0.583c4.576,4.083,9.918,5.54,17.637,4.702c6.428-0.697,11.609-3.923,17.668-3.879   c0.082,0,0.158,0.005,0.236,0.008c-6.381,3.239-9.984,7.803-9.984,7.803l2.922,0.397c0,0,3.076-6.215,10.145-7.83   c7.072,1.615,10.148,7.83,10.148,7.83l2.92-0.397c0,0-3.6-4.563-9.986-7.803c0.08-0.003,0.156-0.008,0.236-0.008   c6.059-0.044,11.244,3.182,17.668,3.879c7.721,0.838,13.064-0.619,17.639-4.702C406.033,115.585,400.553,114.271,394.217,112.573    M411.049,99.696c4.186-5.873,1.553-12.015,2.451-16.281c-6.742,10.199-3.037,14.549-7.568,21.092   c5.512-3.95,17.711-0.207,22.398-18.377C424.572,93.563,415.389,94.809,411.049,99.696 M400.029,108.785   c7.107-6.769,4.807-11.118,7.039-14.583c-10.539,9.48-7.979,12.431-11.729,17.65c3.957-1.899,17.918,4.341,25.857-10.935   C416.576,106.425,406.98,104.663,400.029,108.785 M349.031,111.853c-3.75-5.22-1.191-8.17-11.73-17.65   c2.234,3.465-0.066,7.814,7.039,14.583c-6.951-4.122-16.547-2.36-21.166-7.867C331.111,116.193,345.076,109.953,349.031,111.853    M329.461,94.826c-2.701-10.157,2.098-13.657-1.547-23.408c-0.383,5.49-4.02,8.167-1.564,18.206   c-4.334-8.507-11.041-11.671-12.98-17.504C313.504,88.066,326.244,90.427,329.461,94.826 M330.871,83.415   c0.895,4.267-1.736,10.408,2.449,16.281c-4.342-4.888-13.523-6.133-17.279-13.566c4.686,18.17,16.887,14.427,22.398,18.377   C333.906,97.964,337.613,93.614,330.871,83.415 M321.816,57.186c4.998-10.936,12.461-8.62,15.617-19.042   c-1.783,3.196-9.932,4.545-13.715,12.739c1.93-4.871,0.963-12.317,4.229-16.337C318.182,41.788,322.344,53.511,321.816,57.186    M409.053,36.921c2.252,2.698,6.182,4.287,8.494,6.992c-1.652-7.994-7.789-14.524-15.051-16.079   C406.033,30.512,406.799,34.223,409.053,36.921"></path>
</g>
<g>
	<path fill="#0072B5" d="M281.875,77.317l-0.018-0.049l-0.137-0.595l0.055-0.02c0.732-0.265,1.033-0.633,0.998-1.226h-0.561v-1.73   h1.533v1.441c0,1.243-0.592,1.891-1.82,2.166L281.875,77.317z M279.289,75.429h-1.057l-0.018-0.021l-6.857-8.706v8.728h-1.301   V64.536h1.225l0.018,0.022l6.688,8.504v-8.526h1.303V75.429z M265.836,75.429h-1.328V64.536h1.328V75.429z M262.693,75.429h-7.398   V64.536h1.332v9.655h6.066V75.429z M252.92,75.429h-1.639l-0.018-0.022l-3.107-4.166h-2.996v4.188h-1.33V64.536h4.693   c1.297,0,2.4,0.388,3.105,1.093c0.545,0.544,0.846,1.313,0.846,2.166v0.031c0,1.662-1.047,2.816-2.877,3.18L252.92,75.429z    M241.166,75.429h-7.984V64.536h7.908v1.222h-6.576v3.566h5.881v1.222h-5.881v3.659h6.652V75.429z M226.58,75.429h-4.846V64.536   h4.645c1.205,0,2.219,0.344,2.859,0.969c0.471,0.487,0.709,1.081,0.709,1.766v0.032c0,1.394-0.84,2.116-1.604,2.483   c1.463,0.481,2.205,1.36,2.205,2.613v0.03C230.549,74.279,229.027,75.429,226.58,75.429z M223.049,74.22h3.562   c1.598,0,2.59-0.715,2.59-1.866v-0.031c0-1.155-0.996-1.791-2.807-1.791h-3.346V74.22z M245.16,70.032h3.256   c1.648,0,2.713-0.848,2.713-2.159v-0.032c0-1.294-1.008-2.067-2.699-2.067h-3.27V70.032z M223.049,69.339h3.131   c1.516,0,2.42-0.699,2.42-1.868v-0.031c0-1.063-0.869-1.698-2.326-1.698h-3.225V69.339z"></path>
	<path fill="#0072B5" d="M249.322,46.104h0.949v10.97h-1.314v-9.57l-2.014,0.625l-0.324-1.096L249.322,46.104z M220.479,47.034   l0.326,1.095l2.014-0.624v9.57h1.314v-10.97h-0.949L220.479,47.034z M235.859,53.584v0.031c0,2.078-1.686,3.645-3.922,3.645   c-1.156,0-2.15-0.383-2.877-1.108c-0.973-0.975-1.369-2.196-1.369-4.216v-0.032c0-3.533,1.824-5.908,4.539-5.908   c1.195,0,2.16,0.372,3.223,1.244l0.043,0.036l-0.033,0.045l-0.746,0.989l-0.045-0.04c-0.867-0.736-1.617-1.05-2.504-1.05   c-2.131,0-3.107,2.344-3.115,4.533c0.766-1.035,1.758-1.538,3.023-1.538C234.234,50.215,235.859,51.663,235.859,53.584z    M234.496,53.629c0-1.305-1.082-2.252-2.574-2.252c-1.652,0-2.639,1.169-2.639,2.299v0.03c0,1.367,1.123,2.36,2.668,2.36   c1.475,0,2.545-1.012,2.545-2.407V53.629z M238.807,53.04h6.242v-1.301h-6.242V53.04z M261.752,54.077v0.03   c0,1.809-1.727,3.122-4.105,3.122c-2.381,0-4.107-1.307-4.107-3.106v-0.031c0-1.171,0.771-2.132,2.123-2.655   c-1.148-0.566-1.756-1.419-1.756-2.472v-0.032c0-1.629,1.643-2.905,3.74-2.905c2.096,0,3.736,1.276,3.736,2.905v0.032   c0,1.053-0.607,1.907-1.758,2.474C260.998,51.986,261.752,52.919,261.752,54.077z M257.646,50.954c1.393,0,2.404-0.804,2.404-1.913   V49.01c0-1.029-1.033-1.805-2.404-1.805c-1.373,0-2.406,0.776-2.406,1.805v0.032C255.24,50.15,256.252,50.954,257.646,50.954z    M260.406,54.062c0-1.135-1.188-1.991-2.76-1.991c-1.576,0-2.762,0.856-2.762,1.991v0.03c0,1.287,1.389,1.96,2.762,1.96   c1.895,0,2.76-1.017,2.76-1.96V54.062z"></path>
	<path fill="#0072B5" d="M257.832,38.781c-3.158,0-5.539-2.408-5.539-5.601v-0.03c0-3.158,2.447-5.632,5.57-5.632   c3.158,0,5.539,2.408,5.539,5.602v0.031C263.402,36.308,260.955,38.781,257.832,38.781z M238.104,38.781   c-3.113,0-5.459-2.408-5.459-5.601v-0.03c0-3.158,2.42-5.632,5.508-5.632c2.121,0,3.293,0.829,4.242,1.724l0.043,0.04l-0.039,0.043   l-0.871,0.936l-0.043-0.041c-0.719-0.681-1.748-1.463-3.348-1.463c-2.346,0-4.115,1.876-4.115,4.363v0.031   c0,2.463,1.809,4.393,4.115,4.393c1.518,0,2.473-0.616,3.439-1.541l0.039-0.039l0.885,0.867l-0.043,0.042   C241.527,37.816,240.279,38.781,238.104,38.781z M225.609,38.781c-3.156,0-5.539-2.408-5.539-5.601v-0.03   c0-3.158,2.447-5.632,5.57-5.632c3.158,0,5.539,2.408,5.539,5.602v0.031C231.18,36.308,228.734,38.781,225.609,38.781z    M296.969,38.596h-1.475l-0.016-0.023l-3.111-4.165h-2.992v4.188h-1.33V27.703h4.691c1.299,0,2.4,0.388,3.105,1.094   c0.549,0.546,0.684,1.316,0.684,2.167v0.03c0,1.663-0.883,2.818-2.715,3.182L296.969,38.596z M285.379,38.596h-7.982V27.703h7.906   v1.224h-6.576v3.564h5.883v1.225h-5.883v3.658h6.652V38.596z M270.562,38.596h-4.846V27.703h4.646c1.221,0,2.209,0.336,2.857,0.971   c0.473,0.487,0.711,1.081,0.711,1.766v0.032c0,1.393-0.844,2.115-1.605,2.483c1.463,0.48,2.371,1.359,2.371,2.613v0.03   C274.697,37.448,273.01,38.596,270.562,38.596z M248.23,38.596h-1.346v-9.655h-3.619v-1.238h8.586v1.238h-3.621V38.596z    M257.832,28.756c-2.373,0-4.162,1.876-4.162,4.363v0.031c0,2.463,1.842,4.393,4.193,4.393c2.373,0,4.16-1.876,4.16-4.363v-0.03   C262.023,30.687,260.184,28.756,257.832,28.756z M225.609,28.756c-2.371,0-4.162,1.876-4.162,4.363v0.031   c0,2.463,1.842,4.393,4.193,4.393c2.373,0,4.164-1.876,4.164-4.363v-0.03C229.805,30.687,227.961,28.756,225.609,28.756z    M267.031,37.389h3.562c1.598,0,2.59-0.716,2.59-1.868v-0.03c0-1.155-0.996-1.792-2.805-1.792h-3.348V37.389z M289.375,33.2h3.254   c1.65,0,2.715-0.848,2.715-2.16v-0.031c0-1.294-1.01-2.068-2.699-2.068h-3.27V33.2z M267.031,32.508h3.131   c1.518,0,2.424-0.698,2.424-1.869v-0.03c0-1.063-0.871-1.698-2.33-1.698h-3.225V32.508z"></path>
	<path fill="#0072B5" d="M230.168,112.62l-0.037-0.036l-1.648-1.695c-1.047,1.109-2.201,1.649-3.527,1.649   c-2.027,0-3.443-1.264-3.443-3.074v-0.031c0-1.393,0.861-2.447,2.561-3.135c-0.746-0.886-1.037-1.55-1.037-2.348v-0.031   c0-1.514,1.221-2.612,2.904-2.612c1.502,0,2.676,1.093,2.676,2.489v0.031c0,1.288-0.814,2.214-2.49,2.826l2.348,2.396   c0.441-0.651,0.861-1.437,1.248-2.334l0.023-0.056l1.109,0.512l-0.025,0.054c-0.555,1.181-1.029,2.01-1.533,2.683l1.891,1.935   L230.168,112.62z M258.58,112.57c-3.262,0-5.539-2.304-5.539-5.602v-0.03c0-3.158,2.4-5.632,5.461-5.632   c1.666,0,2.842,0.418,4.057,1.444l0.045,0.037l-0.859,1.013l-0.045-0.038c-0.727-0.633-1.623-1.218-3.242-1.218   c-2.264,0-4.039,1.917-4.039,4.363v0.03c0,2.646,1.691,4.423,4.209,4.423c1.098,0,2.234-0.393,3.053-1.048v-2.596h-3.281v-1.207   h4.566v4.381l-0.02,0.017C262.25,111.529,260.76,112.57,258.58,112.57z M297.879,112.385h-7.398v-10.893h1.332v9.654h6.066V112.385   z M288.545,112.385h-1.436l-0.016-0.034l-1.246-2.813h-5.791l-1.277,2.848h-1.375l0.035-0.082l4.928-10.889h1.215l0.016,0.034   L288.545,112.385z M274.379,112.385h-1.346v-9.654h-3.619v-1.238h8.584v1.238h-3.619V112.385z M267.326,112.385h-1.33v-10.893h1.33   V112.385z M250.453,112.385h-1.332v-10.893h1.332V112.385z M240.781,112.385h-3.799v-10.893h3.799c3.354,0,5.787,2.276,5.787,5.414   v0.032C246.568,110.094,244.135,112.385,240.781,112.385z M224.848,107.145c-1.283,0.479-1.99,1.273-1.99,2.242v0.03   c0,1.145,0.92,1.975,2.189,1.975c0.91,0,1.791-0.451,2.615-1.342L224.848,107.145z M238.312,111.146h2.469   c2.596,0,4.41-1.718,4.41-4.178v-0.03c0-2.478-1.814-4.208-4.41-4.208h-2.469V111.146z M280.586,108.313h4.73l-2.357-5.284   L280.586,108.313z M225.895,102.422c-0.912,0-1.574,0.63-1.574,1.497v0.031c0,0.604,0.252,1.072,1.037,1.92   c1.35-0.462,2.006-1.11,2.006-1.981v-0.031C227.363,103.025,226.744,102.422,225.895,102.422z"></path>
	<path fill="#0072B5" d="M226.576,94.091c-3.262,0-5.539-2.302-5.539-5.6v-0.032c0-3.157,2.398-5.631,5.463-5.631   c1.662,0,2.836,0.418,4.055,1.444l0.045,0.038l-0.861,1.014l-0.045-0.038c-0.727-0.633-1.621-1.219-3.24-1.219   c-2.264,0-4.039,1.917-4.039,4.362v0.029c0,2.646,1.691,4.424,4.207,4.424c1.096,0,2.234-0.392,3.053-1.047v-2.595h-3.279v-1.208   h4.566v4.38l-0.021,0.018C230.246,93.052,228.756,94.091,226.576,94.091z M298.139,93.907h-1.346v-4.306l-4.533-6.588h1.619   l0.018,0.025l3.586,5.316l3.631-5.342h1.561l-0.064,0.092l-4.471,6.481V93.907z M290.738,93.907h-1.057l-0.018-0.022l-6.855-8.705   v8.728h-1.303V83.014h1.227l0.018,0.021l6.688,8.505v-8.526h1.301V93.907z M279.572,93.907h-1.438l-0.016-0.034l-1.246-2.815   h-5.791l-1.277,2.85h-1.375l0.037-0.083l4.928-10.889h1.213l0.016,0.034L279.572,93.907z M266.539,93.907h-1.332v-8.599   l-3.84,5.642h-0.123l-3.838-5.627v8.584h-1.301V83.014h1.32l0.018,0.026l3.881,5.807l3.895-5.833h1.32V93.907z M253.732,93.907   h-1.641l-0.018-0.023l-3.107-4.165h-2.994v4.188h-1.33V83.014h4.691c1.297,0,2.4,0.389,3.107,1.094   c0.545,0.546,0.846,1.314,0.846,2.166v0.03c0,1.662-1.049,2.817-2.879,3.181L253.732,93.907z M241.977,93.907h-7.982V83.014h7.906   v1.223h-6.576v3.564h5.883v1.225h-5.883v3.657h6.652V93.907z M271.613,89.835h4.73l-2.359-5.284L271.613,89.835z M245.973,88.51   h3.254c1.648,0,2.715-0.848,2.715-2.159v-0.031c0-1.295-1.01-2.067-2.699-2.067h-3.27V88.51z"></path>
</g>
<g>
	<path fill="#0072B5" d="M186.05,83.585h1.438V72.291h4.233v-1.313h-9.905v1.313h4.234V83.585z M178.174,83.585h1.42V70.978h-1.42   V83.585z M162.085,83.585h1.386V73.393l4.593,6.734h0.073l4.595-6.755v10.213h1.421V70.978h-1.439l-4.594,6.879l-4.596-6.879   h-1.439V83.585z M146.091,83.585h1.383V73.393l4.595,6.734h0.072l4.596-6.755v10.213h1.419V70.978h-1.438l-4.594,6.879   l-4.595-6.879h-1.438V83.585z M137.462,83.782c3.153,0,5.258-1.906,5.258-5.582v-7.222h-1.421v7.333c0,2.754-1.477,4.159-3.8,4.159   c-2.397,0-3.857-1.529-3.857-4.25v-7.242h-1.421v7.333C132.221,81.876,134.344,83.782,137.462,83.782 M125.728,83.766   c2.505,0,4.304-1.403,4.304-3.566v-0.034c0-1.929-1.294-2.956-4.106-3.568c-2.775-0.595-3.423-1.261-3.423-2.451V74.11   c0-1.136,1.044-2.036,2.685-2.036c1.298,0,2.468,0.414,3.64,1.37l0.827-1.1c-1.277-1.025-2.593-1.546-4.43-1.546   c-2.397,0-4.143,1.456-4.143,3.438v0.036c0,2.071,1.331,3.01,4.231,3.639c2.649,0.559,3.28,1.227,3.28,2.396v0.036   c0,1.244-1.117,2.145-2.811,2.145c-1.749,0-3.009-0.595-4.323-1.783l-0.882,1.044C122.089,83.1,123.727,83.766,125.728,83.766"></path>
	<path fill="#0072B5" d="M179.671,61.97h1.421v-5.675h7.277v5.675h1.422V49.363h-1.422v5.601h-7.277v-5.601h-1.421V61.97z    M171.872,61.97h1.438V50.675h4.234v-1.312h-9.905v1.312h4.233V61.97z M160.869,61.97h8.518v-1.313h-7.097V49.363h-1.421V61.97z    M149.643,57.343l2.881-6.415l2.864,6.415H149.643z M146.131,61.97h1.458l1.496-3.333h6.861l1.477,3.333h1.53l-5.744-12.697h-1.333   L146.131,61.97z M135.897,61.97h9.202v-1.296h-7.781V56.26h6.88v-1.296h-6.88v-4.306h7.691v-1.295h-9.112V61.97z M121.917,61.97   h1.421v-5.675h7.28v5.675h1.42V49.363h-1.42v5.601h-7.28v-5.601h-1.421V61.97z"></path>
	<path fill="#0072B5" d="M183.433,29.06c3.188,0,5.226,2.198,5.226,4.99v0.037c0,2.792-2.037,4.955-5.226,4.955h-2.956V29.06   H183.433z M179.059,40.354h4.375c3.963,0,6.7-2.754,6.7-6.304v-0.035c0-3.55-2.737-6.268-6.7-6.268h-4.375V40.354z M168.568,40.354   h8.519v-1.313h-7.098V27.748h-1.42V40.354z M156.637,34.178V29.06h3.891c2.036,0,3.227,0.937,3.227,2.487v0.036   c0,1.622-1.353,2.595-3.244,2.595H156.637z M155.216,40.354h1.421v-4.9h3.602l3.66,4.9h1.744l-3.872-5.151   c1.983-0.36,3.422-1.584,3.422-3.674v-0.036c0-0.991-0.36-1.875-0.971-2.487c-0.792-0.791-2.036-1.259-3.586-1.259h-5.419V40.354z    M145.914,39.257c-2.882,0-4.972-2.342-4.972-5.207v-0.035c0-2.865,2.054-5.171,4.936-5.171c2.883,0,4.974,2.342,4.974,5.206v0.037   C150.852,36.951,148.797,39.257,145.914,39.257 M145.877,40.57c3.838,0,6.448-3.042,6.448-6.52v-0.035   c0-3.478-2.574-6.483-6.411-6.483c-3.839,0-6.48,3.042-6.48,6.519l0.033,0.037C139.467,37.563,142.041,40.57,145.877,40.57    M124.436,40.445h1.189l3.477-10.229l3.457,10.229h1.208l4.502-12.697h-1.494l-3.603,10.5l-3.458-10.537h-1.171l-3.458,10.537   l-3.603-10.5h-1.548L124.436,40.445z"></path>
	<path fill="#0072B5" d="M146.652,112.735c-2.539,0-4.725-1.114-6.326-3.223c-1.5-1.978-2.327-4.658-2.327-7.552v-0.06   c0-2.892,0.837-5.584,2.357-7.581c0.776-1.02,1.699-1.818,2.745-2.373c1.104-0.584,2.319-0.881,3.61-0.881   c2.538,0,4.727,1.115,6.327,3.224c1.501,1.978,2.329,4.658,2.329,7.551v0.061c0,2.892-0.837,5.583-2.358,7.582   c-0.775,1.02-1.7,1.817-2.745,2.371C149.158,112.438,147.944,112.735,146.652,112.735z M190.956,112.377h-14.319v-1.195   l0.007-0.006l7.796-7.049c3.457-3.156,4.624-4.955,4.624-7.125c0-1.272-0.501-2.425-1.412-3.245   c-0.871-0.783-2.037-1.215-3.287-1.215c-2.438,0-4.207,1.122-6.108,3.874l-0.011,0.017l-0.016-0.011l-1.182-0.787l0.01-0.018   c1.769-2.695,3.713-4.491,7.456-4.491c3.553,0,6.233,2.475,6.233,5.757v0.06c0,2.888-1.614,4.845-5.232,8.141l-6.354,5.76h11.797   V112.377z M172.702,112.377h-14.32v-1.195l0.007-0.006l7.796-7.049c3.457-3.156,4.623-4.955,4.623-7.125   c0-2.543-2.02-4.46-4.698-4.46c-2.438,0-4.208,1.122-6.108,3.874l-0.011,0.017l-0.017-0.011l-1.183-0.787l0.011-0.018   c1.769-2.695,3.713-4.491,7.456-4.491c3.554,0,6.234,2.475,6.234,5.757v0.06c0,2.887-1.614,4.845-5.234,8.141l-6.353,5.76h11.797   V112.377z M134.473,112.377h-14.32v-1.195l0.006-0.006l7.797-7.049c3.456-3.156,4.623-4.955,4.623-7.125   c0-2.543-2.02-4.46-4.698-4.46c-2.438,0-4.208,1.122-6.107,3.874l-0.013,0.017l-0.017-0.011l-1.182-0.787l0.012-0.018   c1.769-2.695,3.713-4.491,7.456-4.491c3.554,0,6.234,2.475,6.234,5.757v0.06c0,2.887-1.614,4.845-5.236,8.141l-6.352,5.76h11.797   V112.377z M146.652,92.512c-2.042,0-3.812,0.982-5.116,2.84c-1.213,1.73-1.883,4.035-1.883,6.489v0.061   c0,2.407,0.697,4.779,1.912,6.508c1.306,1.857,3.134,2.881,5.146,2.881c2.013,0,3.831-1.012,5.118-2.851   c1.213-1.732,1.883-4.033,1.883-6.479v-0.06c0-2.418-0.697-4.795-1.913-6.519C150.496,93.531,148.667,92.512,146.652,92.512z"></path>
</g>
</svg>
